<svg width="625" height="744" viewBox="0 0 625 744" fill="none" xmlns="http://www.w3.org/2000/svg">
<g filter="url(#filter0_d)">
<rect x="54" y="203" width="518" height="442" fill="#2A2A2A"/>
<rect x="54.5" y="203.5" width="517" height="441" stroke="black"/>
</g>
<ellipse cx="313" cy="208" rx="259" ry="208" fill="#2A2A2A"/>
<g filter="url(#filter1_f)">
<path d="M224.658 177.72V159.24C224.658 147.88 219.858 136.12 208.018 136.12C202.418 136.12 196.418 138.76 194.258 142.76V120.6L187.458 120.12V183H194.258V150.04C196.258 146.04 199.138 142.92 204.658 142.92C212.738 142.92 217.378 149.48 217.378 157.56V183H225.138C224.658 181.4 224.658 179.48 224.658 177.72ZM276.319 136.12C269.679 136.12 263.439 138.92 258.959 143.8L263.039 148.76C268.159 143.8 272.479 142.28 276.559 142.28C284.639 142.28 290.239 148.28 290.239 156.92V157.48C288.559 157.4 286.959 157.32 285.439 157.32C267.119 157.32 257.919 162.04 257.919 171.16C257.919 179.64 265.919 184.12 275.999 184.12C282.399 184.04 287.919 181.4 290.239 177.4C290.239 179.48 289.199 181.96 288.479 183H297.039V156.92C297.039 144.76 288.399 136.12 276.319 136.12ZM274.799 178.36C269.359 178.36 264.879 175.88 264.879 171.16C264.879 165.56 271.279 163.32 285.119 163.32C286.719 163.32 288.479 163.32 290.239 163.4V170.76C286.559 175.88 280.239 178.36 274.799 178.36ZM366.78 177.72V177.4H339.66L366.46 143V137.4H333.58V143H359.42L332.54 177.4V183H367.26C366.78 181.4 366.78 179.48 366.78 177.72ZM433.481 137.4C432.201 144.2 427.321 158.44 422.121 172.04C416.681 159.24 410.361 145.96 409.001 137.4H402.281C403.961 147.88 413.001 165.4 418.761 180.6H418.841L416.041 187.48C414.121 192.76 410.921 195.4 406.121 194.44L405.001 199.72C413.241 201.16 418.761 197.96 421.881 189.48C429.401 172.12 438.601 147.56 441.081 137.4H433.481Z" fill="#19D815"/>
<path d="M224.658 177.72V159.24C224.658 147.88 219.858 136.12 208.018 136.12C202.418 136.12 196.418 138.76 194.258 142.76V120.6L187.458 120.12V183H194.258V150.04C196.258 146.04 199.138 142.92 204.658 142.92C212.738 142.92 217.378 149.48 217.378 157.56V183H225.138C224.658 181.4 224.658 179.48 224.658 177.72ZM276.319 136.12C269.679 136.12 263.439 138.92 258.959 143.8L263.039 148.76C268.159 143.8 272.479 142.28 276.559 142.28C284.639 142.28 290.239 148.28 290.239 156.92V157.48C288.559 157.4 286.959 157.32 285.439 157.32C267.119 157.32 257.919 162.04 257.919 171.16C257.919 179.64 265.919 184.12 275.999 184.12C282.399 184.04 287.919 181.4 290.239 177.4C290.239 179.48 289.199 181.96 288.479 183H297.039V156.92C297.039 144.76 288.399 136.12 276.319 136.12ZM274.799 178.36C269.359 178.36 264.879 175.88 264.879 171.16C264.879 165.56 271.279 163.32 285.119 163.32C286.719 163.32 288.479 163.32 290.239 163.4V170.76C286.559 175.88 280.239 178.36 274.799 178.36ZM366.78 177.72V177.4H339.66L366.46 143V137.4H333.58V143H359.42L332.54 177.4V183H367.26C366.78 181.4 366.78 179.48 366.78 177.72ZM433.481 137.4C432.201 144.2 427.321 158.44 422.121 172.04C416.681 159.24 410.361 145.96 409.001 137.4H402.281C403.961 147.88 413.001 165.4 418.761 180.6H418.841L416.041 187.48C414.121 192.76 410.921 195.4 406.121 194.44L405.001 199.72C413.241 201.16 418.761 197.96 421.881 189.48C429.401 172.12 438.601 147.56 441.081 137.4H433.481Z" fill="url(#paint0_linear)"/>
<path d="M194.258 142.76H193.258L195.137 143.235L194.258 142.76ZM194.258 120.6H195.258V119.668L194.328 119.602L194.258 120.6ZM187.458 120.12L187.528 119.122L186.458 119.047V120.12H187.458ZM187.458 183H186.458V184H187.458V183ZM194.258 183V184H195.258V183H194.258ZM194.258 150.04L193.363 149.593L193.258 149.804V150.04H194.258ZM217.378 183H216.378V184H217.378V183ZM225.138 183V184H226.482L226.095 182.713L225.138 183ZM225.658 177.72V159.24H223.658V177.72H225.658ZM225.658 159.24C225.658 153.442 224.436 147.462 221.629 142.896C218.796 138.286 214.336 135.12 208.018 135.12V137.12C213.539 137.12 217.399 139.834 219.926 143.944C222.479 148.098 223.658 153.678 223.658 159.24H225.658ZM208.018 135.12C205.069 135.12 202.024 135.813 199.422 137.035C196.832 138.251 194.592 140.036 193.378 142.285L195.137 143.235C196.083 141.484 197.923 139.949 200.273 138.845C202.611 137.747 205.366 137.12 208.018 137.12V135.12ZM195.258 142.76V120.6H193.258V142.76H195.258ZM194.328 119.602L187.528 119.122L187.387 121.118L194.187 121.598L194.328 119.602ZM186.458 120.12V183H188.458V120.12H186.458ZM187.458 184H194.258V182H187.458V184ZM195.258 183V150.04H193.258V183H195.258ZM195.152 150.487C196.117 148.557 197.254 146.924 198.748 145.772C200.222 144.635 202.104 143.92 204.658 143.92V141.92C201.691 141.92 199.373 142.765 197.527 144.188C195.701 145.596 194.398 147.523 193.363 149.593L195.152 150.487ZM204.658 143.92C208.4 143.92 211.295 145.427 213.274 147.844C215.269 150.28 216.378 153.702 216.378 157.56H218.378C218.378 153.338 217.166 149.44 214.821 146.576C212.46 143.693 208.995 141.92 204.658 141.92V143.92ZM216.378 157.56V183H218.378V157.56H216.378ZM217.378 184H225.138V182H217.378V184ZM226.095 182.713C225.666 181.28 225.658 179.518 225.658 177.72H223.658C223.658 179.442 223.649 181.52 224.18 183.287L226.095 182.713ZM258.959 143.8L258.222 143.124L257.634 143.764L258.186 144.435L258.959 143.8ZM263.039 148.76L262.266 149.395L262.956 150.233L263.735 149.478L263.039 148.76ZM290.239 157.48L290.191 158.479L291.239 158.529V157.48H290.239ZM275.999 184.12V185.12L276.011 185.12L275.999 184.12ZM290.239 177.4H291.239V173.683L289.374 176.898L290.239 177.4ZM288.479 183L287.657 182.431L286.57 184H288.479V183ZM297.039 183V184H298.039V183H297.039ZM290.239 163.4H291.239V162.444L290.284 162.401L290.239 163.4ZM290.239 170.76L291.051 171.344L291.239 171.082V170.76H290.239ZM276.319 135.12C269.393 135.12 262.888 138.042 258.222 143.124L259.695 144.476C263.99 139.798 269.964 137.12 276.319 137.12V135.12ZM258.186 144.435L262.266 149.395L263.811 148.125L259.731 143.165L258.186 144.435ZM263.735 149.478C268.708 144.66 272.789 143.28 276.559 143.28V141.28C272.169 141.28 267.61 142.94 262.343 148.042L263.735 149.478ZM276.559 143.28C280.34 143.28 283.489 144.678 285.698 147.043C287.912 149.413 289.239 152.817 289.239 156.92H291.239C291.239 152.383 289.766 148.467 287.16 145.677C284.548 142.882 280.858 141.28 276.559 141.28V143.28ZM289.239 156.92V157.48H291.239V156.92H289.239ZM290.286 156.481C288.614 156.401 286.988 156.32 285.439 156.32V158.32C286.93 158.32 288.504 158.399 290.191 158.479L290.286 156.481ZM285.439 156.32C276.224 156.32 269.157 157.502 264.358 159.928C261.945 161.147 260.075 162.697 258.81 164.596C257.541 166.501 256.919 168.703 256.919 171.16H258.919C258.919 169.057 259.446 167.249 260.475 165.704C261.508 164.153 263.083 162.813 265.26 161.712C269.641 159.498 276.333 158.32 285.439 158.32V156.32ZM256.919 171.16C256.919 175.766 259.113 179.304 262.623 181.651C266.096 183.974 270.828 185.12 275.999 185.12V183.12C271.089 183.12 266.782 182.026 263.735 179.989C260.724 177.976 258.919 175.034 258.919 171.16H256.919ZM276.011 185.12C282.621 185.037 288.546 182.312 291.104 177.902L289.374 176.898C287.292 180.488 282.177 183.043 275.986 183.12L276.011 185.12ZM289.239 177.4C289.239 178.29 289.013 179.314 288.684 180.263C288.354 181.213 287.951 182.005 287.657 182.431L289.301 183.569C289.726 182.955 290.203 181.987 290.574 180.917C290.945 179.846 291.239 178.59 291.239 177.4H289.239ZM288.479 184H297.039V182H288.479V184ZM298.039 183V156.92H296.039V183H298.039ZM298.039 156.92C298.039 144.21 288.954 135.12 276.319 135.12V137.12C287.844 137.12 296.039 145.31 296.039 156.92H298.039ZM274.799 177.36C272.213 177.36 269.945 176.768 268.357 175.7C266.803 174.655 265.879 173.152 265.879 171.16H263.879C263.879 173.888 265.195 175.985 267.241 177.36C269.252 178.712 271.944 179.36 274.799 179.36V177.36ZM265.879 171.16C265.879 169.967 266.213 169.007 266.869 168.206C267.539 167.387 268.601 166.666 270.163 166.075C273.312 164.884 278.217 164.32 285.119 164.32V162.32C278.181 162.32 272.965 162.876 269.455 164.205C267.687 164.874 266.284 165.763 265.321 166.939C264.344 168.133 263.879 169.553 263.879 171.16H265.879ZM285.119 164.32C286.722 164.32 288.46 164.32 290.193 164.399L290.284 162.401C288.498 162.32 286.716 162.32 285.119 162.32V164.32ZM289.239 163.4V170.76H291.239V163.4H289.239ZM289.427 170.176C285.968 174.988 279.979 177.36 274.799 177.36V179.36C280.498 179.36 287.149 176.772 291.051 171.344L289.427 170.176ZM366.78 177.4H367.78V176.4H366.78V177.4ZM339.66 177.4L338.871 176.785L337.613 178.4H339.66V177.4ZM366.46 143L367.249 143.615L367.46 143.344V143H366.46ZM366.46 137.4H367.46V136.4H366.46V137.4ZM333.58 137.4V136.4H332.58V137.4H333.58ZM333.58 143H332.58V144H333.58V143ZM359.42 143L360.208 143.616L361.47 142H359.42V143ZM332.54 177.4L331.752 176.784L331.54 177.056V177.4H332.54ZM332.54 183H331.54V184H332.54V183ZM367.26 183V184H368.604L368.218 182.713L367.26 183ZM367.78 177.72V177.4H365.78V177.72H367.78ZM366.78 176.4H339.66V178.4H366.78V176.4ZM340.449 178.015L367.249 143.615L365.671 142.385L338.871 176.785L340.449 178.015ZM367.46 143V137.4H365.46V143H367.46ZM366.46 136.4H333.58V138.4H366.46V136.4ZM332.58 137.4V143H334.58V137.4H332.58ZM333.58 144H359.42V142H333.58V144ZM358.632 142.384L331.752 176.784L333.328 178.016L360.208 143.616L358.632 142.384ZM331.54 177.4V183H333.54V177.4H331.54ZM332.54 184H367.26V182H332.54V184ZM368.218 182.713C367.788 181.28 367.78 179.518 367.78 177.72H365.78C365.78 179.442 365.772 181.52 366.302 183.287L368.218 182.713ZM433.481 137.4V136.4H432.652L432.499 137.215L433.481 137.4ZM422.121 172.04L421.201 172.431L422.17 174.712L423.055 172.397L422.121 172.04ZM409.001 137.4L409.989 137.243L409.855 136.4H409.001V137.4ZM402.281 137.4V136.4H401.108L401.294 137.558L402.281 137.4ZM418.761 180.6L417.826 180.954L418.071 181.6H418.761V180.6ZM418.841 180.6L419.767 180.977L420.328 179.6H418.841V180.6ZM416.041 187.48L415.115 187.103L415.108 187.121L415.101 187.138L416.041 187.48ZM406.121 194.44L406.317 193.459L405.348 193.266L405.143 194.232L406.121 194.44ZM405.001 199.72L404.023 199.512L403.808 200.527L404.829 200.705L405.001 199.72ZM421.881 189.48L420.964 189.083L420.952 189.108L420.943 189.135L421.881 189.48ZM441.081 137.4L442.053 137.637L442.355 136.4H441.081V137.4ZM432.499 137.215C431.238 143.912 426.393 158.068 421.187 171.683L423.055 172.397C428.25 158.812 433.165 144.488 434.464 137.585L432.499 137.215ZM423.042 171.649C420.308 165.217 417.385 158.738 414.958 152.754C412.529 146.767 410.649 141.4 409.989 137.243L408.014 137.557C408.713 141.96 410.674 147.513 413.105 153.506C415.537 159.502 418.495 166.063 421.201 172.431L423.042 171.649ZM409.001 136.4H402.281V138.4H409.001V136.4ZM401.294 137.558C402.156 142.935 404.886 150.044 408.069 157.617C411.275 165.244 414.954 173.375 417.826 180.954L419.696 180.246C416.808 172.625 413.088 164.396 409.913 156.843C406.716 149.236 404.087 142.345 403.269 137.242L401.294 137.558ZM418.761 181.6H418.841V179.6H418.761V181.6ZM417.915 180.223L415.115 187.103L416.967 187.857L419.767 180.977L417.915 180.223ZM415.101 187.138C414.178 189.677 412.99 191.454 411.571 192.493C410.186 193.506 408.48 193.892 406.317 193.459L405.925 195.421C408.563 195.948 410.856 195.494 412.752 194.107C414.612 192.746 415.984 190.563 416.981 187.822L415.101 187.138ZM405.143 194.232L404.023 199.512L405.979 199.928L407.099 194.648L405.143 194.232ZM404.829 200.705C409.109 201.453 412.812 201.016 415.876 199.177C418.933 197.343 421.21 194.2 422.82 189.825L420.943 189.135C419.432 193.24 417.389 195.937 414.847 197.463C412.311 198.984 409.133 199.427 405.173 198.735L404.829 200.705ZM422.799 189.877C430.322 172.51 439.551 147.885 442.053 137.637L440.11 137.163C437.651 147.235 428.481 171.73 420.964 189.083L422.799 189.877ZM441.081 136.4H433.481V138.4H441.081V136.4Z" fill="black"/>
</g>
<g filter="url(#filter2_df)">
<path d="M210.5 344L392.798 644H28.2016L210.5 344Z" fill="#F52FF9" fill-opacity="0.84"/>
<path d="M29.0905 643.5L210.5 344.963L391.909 643.5H29.0905Z" stroke="black"/>
</g>
<g filter="url(#filter3_df)">
<path d="M307.5 344L489.798 644H125.202L307.5 344Z" fill="#6CE0F9" fill-opacity="0.84"/>
<path d="M126.091 643.5L307.5 344.963L488.909 643.5H126.091Z" stroke="black"/>
</g>
<g filter="url(#filter4_df)">
<path d="M414.5 344L596.798 644H232.202L414.5 344Z" fill="#2FA4F9" fill-opacity="0.84"/>
<path d="M233.091 643.5L414.5 344.963L595.909 643.5H233.091Z" stroke="black"/>
</g>
<defs>
<filter id="filter0_d" x="50" y="203" width="526" height="450" filterUnits="userSpaceOnUse" color-interpolation-filters="sRGB">
<feFlood flood-opacity="0" result="BackgroundImageFix"/>
<feColorMatrix in="SourceAlpha" type="matrix" values="0 0 0 0 0 0 0 0 0 0 0 0 0 0 0 0 0 0 127 0"/>
<feOffset dy="4"/>
<feGaussianBlur stdDeviation="2"/>
<feColorMatrix type="matrix" values="0 0 0 0 0 0 0 0 0 0 0 0 0 0 0 0 0 0 0.25 0"/>
<feBlend mode="normal" in2="BackgroundImageFix" result="effect1_dropShadow"/>
<feBlend mode="normal" in="SourceGraphic" in2="effect1_dropShadow" result="shape"/>
</filter>
<filter id="filter1_f" x="182.458" y="115.047" width="263.897" height="90.0057" filterUnits="userSpaceOnUse" color-interpolation-filters="sRGB">
<feFlood flood-opacity="0" result="BackgroundImageFix"/>
<feBlend mode="normal" in="SourceGraphic" in2="BackgroundImageFix" result="shape"/>
<feGaussianBlur stdDeviation="2" result="effect1_foregroundBlur"/>
</filter>
<filter id="filter2_df" x="24.2017" y="340" width="372.597" height="312" filterUnits="userSpaceOnUse" color-interpolation-filters="sRGB">
<feFlood flood-opacity="0" result="BackgroundImageFix"/>
<feColorMatrix in="SourceAlpha" type="matrix" values="0 0 0 0 0 0 0 0 0 0 0 0 0 0 0 0 0 0 127 0"/>
<feOffset dy="4"/>
<feGaussianBlur stdDeviation="2"/>
<feColorMatrix type="matrix" values="0 0 0 0 0 0 0 0 0 0 0 0 0 0 0 0 0 0 0.25 0"/>
<feBlend mode="normal" in2="BackgroundImageFix" result="effect1_dropShadow"/>
<feBlend mode="normal" in="SourceGraphic" in2="effect1_dropShadow" result="shape"/>
<feGaussianBlur stdDeviation="2" result="effect2_foregroundBlur"/>
</filter>
<filter id="filter3_df" x="121.202" y="340" width="372.597" height="312" filterUnits="userSpaceOnUse" color-interpolation-filters="sRGB">
<feFlood flood-opacity="0" result="BackgroundImageFix"/>
<feColorMatrix in="SourceAlpha" type="matrix" values="0 0 0 0 0 0 0 0 0 0 0 0 0 0 0 0 0 0 127 0"/>
<feOffset dy="4"/>
<feGaussianBlur stdDeviation="2"/>
<feColorMatrix type="matrix" values="0 0 0 0 0 0 0 0 0 0 0 0 0 0 0 0 0 0 0.25 0"/>
<feBlend mode="normal" in2="BackgroundImageFix" result="effect1_dropShadow"/>
<feBlend mode="normal" in="SourceGraphic" in2="effect1_dropShadow" result="shape"/>
<feGaussianBlur stdDeviation="2" result="effect2_foregroundBlur"/>
</filter>
<filter id="filter4_df" x="228.202" y="340" width="372.597" height="312" filterUnits="userSpaceOnUse" color-interpolation-filters="sRGB">
<feFlood flood-opacity="0" result="BackgroundImageFix"/>
<feColorMatrix in="SourceAlpha" type="matrix" values="0 0 0 0 0 0 0 0 0 0 0 0 0 0 0 0 0 0 127 0"/>
<feOffset dy="4"/>
<feGaussianBlur stdDeviation="2"/>
<feColorMatrix type="matrix" values="0 0 0 0 0 0 0 0 0 0 0 0 0 0 0 0 0 0 0.25 0"/>
<feBlend mode="normal" in2="BackgroundImageFix" result="effect1_dropShadow"/>
<feBlend mode="normal" in="SourceGraphic" in2="effect1_dropShadow" result="shape"/>
<feGaussianBlur stdDeviation="2" result="effect2_foregroundBlur"/>
</filter>
<linearGradient id="paint0_linear" x1="323.5" y1="89" x2="323.5" y2="504" gradientUnits="userSpaceOnUse">
<stop stop-color="#FF00B8"/>
<stop offset="1" stop-color="white" stop-opacity="0"/>
</linearGradient>
</defs>
</svg>
